<svg id="Laag_1" data-name="Laag 1" xmlns="http://www.w3.org/2000/svg" xmlns:xlink="http://www.w3.org/1999/xlink" viewBox="0 0 999.66 338"><defs><style>.cls-1{fill:url(#Naamloos_verloop);}.cls-2{fill:url(#Naamloos_verloop-2);}.cls-3{fill:url(#Naamloos_verloop-3);}.cls-4{fill:url(#Naamloos_verloop-4);}.cls-5{fill:url(#Naamloos_verloop-5);}.cls-6{fill:none;}.cls-7{fill:#a9a8a9;}.cls-8{clip-path:url(#clip-path);}.cls-9{fill:#001970;}.cls-10{fill:#62269e;}.cls-11{fill:#57c1e8;}.cls-12{fill:#61b4e4;}.cls-13{fill:#009bde;}.cls-14{fill:#005cb9;}.cls-15{fill:#000a8b;}.cls-16{fill:#712177;}.cls-17{fill:#8431a6;}.cls-18{fill:#c5a7e1;}.cls-19{fill:#e2c8e6;}.cls-20{fill:#9acaeb;}.cls-21{fill:#fff;opacity:0.3;}.cls-22{mask:url(#mask);}</style><linearGradient id="Naamloos_verloop" x1="529.82" y1="407.96" x2="902.01" y2="331.14" gradientUnits="userSpaceOnUse"><stop offset="0" stop-color="#fff"/><stop offset="1"/></linearGradient><linearGradient id="Naamloos_verloop-2" x1="533.03" y1="423.48" x2="905.21" y2="346.66" xlink:href="#Naamloos_verloop"/><linearGradient id="Naamloos_verloop-3" x1="523.14" y1="375.59" x2="895.33" y2="298.77" xlink:href="#Naamloos_verloop"/><linearGradient id="Naamloos_verloop-4" x1="526.54" y1="392.04" x2="898.72" y2="315.22" xlink:href="#Naamloos_verloop"/><linearGradient id="Naamloos_verloop-5" x1="538.19" y1="448.46" x2="910.37" y2="371.64" xlink:href="#Naamloos_verloop"/><clipPath id="clip-path" transform="translate(-76.64 -224.87)"><path class="cls-6" d="M345.48,386.42l-6.72-9.23c-4.6-6.33-8.37-17.91-8.36-25.74V340c0-7.83-6.08-16.2-13.53-18.62L306,317.9c-7.44-2.41-17.29-9.57-21.89-15.9l-6.7-9.24c-4.59-6.33-14.44-9.53-21.88-7.11l-10.86,3.53c-7.44,2.43-19.61,2.43-27.05,0l-10.86-3.53c-7.44-2.42-17.29.78-21.88,7.11L178.2,302c-4.6,6.33-14.45,13.49-21.89,15.9l-10.86,3.52c-7.45,2.42-13.53,10.79-13.53,18.62v11.41c0,7.83-3.76,19.41-8.36,25.74l-6.72,9.23c-4.6,6.32-4.6,16.68,0,23l6.72,9.23c4.6,6.32,8.37,17.9,8.36,25.73V455.8c0,7.83,6.08,16.21,13.53,18.62l10.86,3.52c7.44,2.41,17.29,9.57,21.89,15.9l6.7,9.24c4.59,6.34,14.44,9.54,21.88,7.11l10.86-3.53c7.44-2.43,19.61-2.43,27.05,0l10.86,3.53c7.44,2.43,17.29-.77,21.88-7.11l6.7-9.24c4.6-6.33,14.45-13.49,21.89-15.9l10.86-3.52c7.45-2.41,13.53-10.79,13.53-18.62V444.39c0-7.83,3.76-19.41,8.36-25.73l6.72-9.23C350.08,403.1,350.08,392.74,345.48,386.42ZM197.78,486.48l18.53-84.65H172.94l90.59-92.46L245,394h43.37Z"/></clipPath><mask id="mask" x="344.64" y="122.26" width="343.08" height="90.09" maskUnits="userSpaceOnUse"><g transform="translate(-76.64 -224.87)"><path class="cls-1" d="M598.17,372.22A22.3,22.3,0,0,1,619,373.51c.6.35,1.18.73,1.78,1.08a2.5,2.5,0,0,0,3-.28,16.86,16.86,0,0,0,1.39-1.28q5-5.07,10-10.16a11.37,11.37,0,0,0,1.13-1.28,2.23,2.23,0,0,0-.18-3.39A21.07,21.07,0,0,0,633.5,356c-10.43-7.65-22-10.34-34.65-7.9-20.3,3.93-35.62,21.83-35.77,43.87a46.28,46.28,0,0,0,3.52,17.46,44,44,0,0,0,50,26.28A42.9,42.9,0,0,0,635,426.78a11.93,11.93,0,0,0,1.75-1.73,2,2,0,0,0,.09-2.48,8.53,8.53,0,0,0-1.08-1.32q-5.43-5.44-10.87-10.86c-1.92-1.91-3-1.92-5.14-.46a19.26,19.26,0,0,1-4.87,2.47,22.67,22.67,0,0,1-11.91.83,20,20,0,0,1-15.35-12.46,22.66,22.66,0,0,1-1.14-13.87C587.92,380.07,591.76,375,598.17,372.22Z"/><path class="cls-2" d="M673.75,379.27a2.48,2.48,0,0,1-2-1.25,5,5,0,0,1-.53-1.81c-.09-1-.06-2-.07-3,0-7.19,0-14.38,0-21.57a15.62,15.62,0,0,0-.22-2.46,2,2,0,0,0-1.6-1.68,10.14,10.14,0,0,0-2-.23c-4.9,0-9.81,0-14.71,0-.44,0-.88,0-1.32.05a2.56,2.56,0,0,0-2.59,2.71c-.07.76,0,1.53,0,2.29q0,39.71,0,79.41c0,.57,0,1.15,0,1.72a6.2,6.2,0,0,0,.1,1.14,2.3,2.3,0,0,0,2.15,2.06,9.38,9.38,0,0,0,1.5.11h15.09a9.51,9.51,0,0,0,1.31-.1,2.27,2.27,0,0,0,2.24-2.17,14.47,14.47,0,0,0,.14-2.28q0-12.4,0-24.82a19.23,19.23,0,0,1,.09-2.28,2.77,2.77,0,0,1,2.34-2.63,8.66,8.66,0,0,1,1.68-.2q10.56,0,21.12,0a7.42,7.42,0,0,1,.94.06c2,.28,2.87,1.17,3,3.24.08,1.14.07,2.29.07,3.43,0,7.7,0,15.4,0,23.1a18.22,18.22,0,0,0,.2,2.66,2.08,2.08,0,0,0,1.89,1.85,15.73,15.73,0,0,0,2.06.15q7.17,0,14.33,0a12,12,0,0,0,1.7-.11,2.33,2.33,0,0,0,2.27-2.35,21.89,21.89,0,0,0,.06-2.29V368.39c0-5.79,0-11.58,0-17.37,0-2.39-.45-3.83-3.66-3.81-5.09,0-10.18,0-15.28,0a7.46,7.46,0,0,0-1.49.15,2.2,2.2,0,0,0-1.93,2,26.56,26.56,0,0,0-.16,2.67q0,11,0,21.95a21.44,21.44,0,0,1-.12,2.66,2.74,2.74,0,0,1-2.58,2.59,18,18,0,0,1-2.07.12H676C675.25,379.39,674.5,379.35,673.75,379.27Z"/><path class="cls-3" d="M423.61,369.67a15.85,15.85,0,0,0,2.07.08h13.58a13,13,0,0,1,2.25.15,2.84,2.84,0,0,1,2.68,2.93c.08.89.07,1.78.07,2.67v35.13q0,10.61,0,21.19a17.4,17.4,0,0,0,.09,2.29c.23,1.71.87,2.33,2.54,2.51a16.89,16.89,0,0,0,1.88.08q6.8,0,13.58,0c.63,0,1.26,0,1.89-.08a2.42,2.42,0,0,0,2.5-2.55c.08-.89.06-1.78.06-2.67V376c0-.76,0-1.53,0-2.29a9.55,9.55,0,0,1,.23-1.69,2.48,2.48,0,0,1,2-2,14.34,14.34,0,0,1,2.61-.26c4.84,0,9.68,0,14.53,0a15.93,15.93,0,0,0,2.07-.09,2.25,2.25,0,0,0,2.06-1.92,8.83,8.83,0,0,0,.17-1.7q0-7.64,0-15.28a7.45,7.45,0,0,0-.1-1.33,2.37,2.37,0,0,0-2.4-2.24c-.81-.07-1.63-.06-2.44-.06H425.79a17,17,0,0,0-2.26.09,2.18,2.18,0,0,0-2,1.92,11,11,0,0,0-.2,1.89q0,7.35,0,14.71a10,10,0,0,0,.18,1.89A2.23,2.23,0,0,0,423.61,369.67Z"/><path class="cls-4" d="M525.5,366c.69-.06,1.38,0,2.07,0H550a14.78,14.78,0,0,0,1.88-.08,2.37,2.37,0,0,0,2.16-2.06,8.67,8.67,0,0,0,.13-1.52V351a9.54,9.54,0,0,0-.11-1.52,2.34,2.34,0,0,0-2.11-2.12,15.35,15.35,0,0,0-2.25-.12H503.89a12.12,12.12,0,0,0-2.25.17,2.08,2.08,0,0,0-1.84,1.89,22.75,22.75,0,0,0-.2,2.85q0,19.86,0,39.71v11.83q0,14.22,0,28.45a15.72,15.72,0,0,0,.23,2.65,2.07,2.07,0,0,0,1.93,1.8c.81.09,1.63.13,2.44.14,4,0,8.05,0,12.07,0q16.61,0,33.2,0a18.14,18.14,0,0,0,2.44-.13,2.24,2.24,0,0,0,2.16-2,9.7,9.7,0,0,0,.12-1.71c0-3.56,0-7.12,0-10.69a9.87,9.87,0,0,0-.06-1.33,2.47,2.47,0,0,0-2.41-2.47,17.08,17.08,0,0,0-2.26-.08H527a14.15,14.15,0,0,1-2.26-.12,2.76,2.76,0,0,1-2.43-2.33,8.76,8.76,0,0,1-.18-1.7q0-4.68,0-9.35a7.33,7.33,0,0,1,.08-1.15,2.94,2.94,0,0,1,2.79-2.85,14.28,14.28,0,0,1,2.07-.09h19a14.28,14.28,0,0,0,2.07-.1,2.36,2.36,0,0,0,2.19-2.25,11.12,11.12,0,0,0,.07-1.53V385.51a11.83,11.83,0,0,0-.05-1.33,2.46,2.46,0,0,0-2.36-2.51,14.28,14.28,0,0,0-2.07-.08H527.88c-.75,0-1.51,0-2.26,0-2.29-.13-3.27-1.12-3.45-3.44,0-.31,0-.63,0-.95,0-1.53,0-3.06,0-4.58,0-1.08,0-2.17,0-3.25C522.34,367.11,523.3,366.15,525.5,366Z"/><path class="cls-5" d="M740.52,372.26v56.23c0,1.42,0,2.85,0,4.27a11.92,11.92,0,0,0,.22,2.07,2.57,2.57,0,0,0,2.12,2.15,12,12,0,0,0,2.32.22q6.52,0,13,0a13,13,0,0,0,1.87-.12,2.86,2.86,0,0,0,2.66-2.73,17.19,17.19,0,0,0,.14-2.27c0-5.41,0-10.82,0-16.23,0-4.78,0-9.56,0-14.34a11.59,11.59,0,0,1,.29-2.63,2.2,2.2,0,0,1,1.11-1.58Z"/></g></mask></defs><title>A12_Tech Nova logo_blue_rgb</title><path class="cls-7" d="M837.35,510.8a12.09,12.09,0,0,1-11.41-7.7,13.22,13.22,0,0,1-.93-5v-.07a13.12,13.12,0,0,1,.93-4.92,12.67,12.67,0,0,1,2.58-4.06,12.08,12.08,0,0,1,3.94-2.74,12.26,12.26,0,0,1,5-1,14.73,14.73,0,0,1,3,.29,12.17,12.17,0,0,1,2.52.79,11.24,11.24,0,0,1,2.14,1.23,17.7,17.7,0,0,1,1.9,1.6l-1.9,2a15.1,15.1,0,0,0-3.39-2.43,10,10,0,0,0-8.12-.18,9.15,9.15,0,0,0-3,2.15,9.75,9.75,0,0,0-2,3.22,10.74,10.74,0,0,0-.72,3.95v.07a10.88,10.88,0,0,0,.72,4,10,10,0,0,0,2,3.22,9.48,9.48,0,0,0,3,2.16,9,9,0,0,0,3.78.79,9.54,9.54,0,0,0,4.36-.93,15.41,15.41,0,0,0,3.58-2.62l1.83,1.79a16.58,16.58,0,0,1-2,1.78A12.22,12.22,0,0,1,843,509.6a12,12,0,0,1-2.57.88A13.85,13.85,0,0,1,837.35,510.8Z" transform="translate(-76.64 -224.87)"/><path class="cls-7" d="M876.51,510.8a12.52,12.52,0,0,1-5.12-1,12.22,12.22,0,0,1-3.95-2.76,12.38,12.38,0,0,1-2.55-4,13.2,13.2,0,0,1-.9-4.84v-.07a13.11,13.11,0,0,1,.92-4.85,12.76,12.76,0,0,1,16.79-6.86,12.12,12.12,0,0,1,6.5,6.81,13.11,13.11,0,0,1,.9,4.83,0,0,0,0,1,0,.07,13.07,13.07,0,0,1-.92,4.85,12.33,12.33,0,0,1-11.67,7.88Zm.07-2.57a9.33,9.33,0,0,0,6.93-3,10.26,10.26,0,0,0,2-3.2,10.65,10.65,0,0,0,.72-3.94v-.07a10.74,10.74,0,0,0-.72-3.95,9.72,9.72,0,0,0-2-3.22,9.84,9.84,0,0,0-3.08-2.18,9.2,9.2,0,0,0-3.88-.81,9.33,9.33,0,0,0-6.93,2.95,10.37,10.37,0,0,0-2,3.2,10.65,10.65,0,0,0-.72,3.94v.07a10.8,10.8,0,0,0,.72,4,9.68,9.68,0,0,0,5.1,5.39A9.2,9.2,0,0,0,876.58,508.23Z" transform="translate(-76.64 -224.87)"/><path class="cls-7" d="M908.71,485.77h2.78v22h13.85v2.57H908.71Z" transform="translate(-76.64 -224.87)"/><path class="cls-7" d="M944.22,485.77H947v22h13.85v2.57H944.22Z" transform="translate(-76.64 -224.87)"/><path class="cls-7" d="M979.73,485.77h17.78v2.56h-15v8.33h13.43v2.57H982.5v8.58h15.19v2.57h-18Z" transform="translate(-76.64 -224.87)"/><path class="cls-7" d="M1028.45,510.8a13.1,13.1,0,0,1-5.2-1,11.46,11.46,0,0,1-6.45-6.73,13.83,13.83,0,0,1-.86-4.94v-.07a13.1,13.1,0,0,1,.89-4.83,12.74,12.74,0,0,1,2.52-4.06,11.78,11.78,0,0,1,3.88-2.8,12,12,0,0,1,5-1,16.34,16.34,0,0,1,2.83.22,12.11,12.11,0,0,1,2.39.63,11.55,11.55,0,0,1,2.08,1,18.45,18.45,0,0,1,1.88,1.38l-1.79,2.11a12.93,12.93,0,0,0-3.15-2,10.46,10.46,0,0,0-4.34-.79,8.72,8.72,0,0,0-3.76.81,9.22,9.22,0,0,0-3,2.18,10.21,10.21,0,0,0-1.93,3.2,10.75,10.75,0,0,0-.7,3.9v.07a11.88,11.88,0,0,0,.68,4.08,9.66,9.66,0,0,0,2,3.23,9,9,0,0,0,3.06,2.15,10.25,10.25,0,0,0,4,.77,10.94,10.94,0,0,0,4-.72,11.77,11.77,0,0,0,3.13-1.74v-6.12h-7.49v-2.49h10.16V507a15.89,15.89,0,0,1-4.24,2.65A13.78,13.78,0,0,1,1028.45,510.8Z" transform="translate(-76.64 -224.87)"/><path class="cls-7" d="M1058.33,485.77h17.79v2.56h-15v8.33h13.43v2.57h-13.43v8.58h15.19v2.57h-18Z" transform="translate(-76.64 -224.87)"/><rect class="cls-7" x="312.97" y="60.41" width="3" height="225.52"/><g class="cls-8"><path class="cls-9" d="M109.32,393.3a122.89,122.89,0,0,0,84,117.37h.08L232.1,394.25Z" transform="translate(-76.64 -224.87)"/><path class="cls-10" d="M232.1,394.25,193.44,510.67h-.08a123.07,123.07,0,0,1-60.65-44.46Z" transform="translate(-76.64 -224.87)"/><path class="cls-11" d="M109.32,393.3a122.89,122.89,0,0,0,84,117.37h.08L232.1,394.25Z" transform="translate(-76.64 -224.87)"/><path class="cls-12" d="M232.1,394.25,193.44,510.67h-.08a123.07,123.07,0,0,1-60.65-44.46Z" transform="translate(-76.64 -224.87)"/><path class="cls-13" d="M193.51,510.84a122.89,122.89,0,0,0,137.49-44l0-.07-98.95-72.51Z" transform="translate(-76.64 -224.87)"/><path class="cls-14" d="M232.07,394.26,331,466.77l0,.07a123.06,123.06,0,0,1-60.92,44.09Z" transform="translate(-76.64 -224.87)"/><path class="cls-15" d="M331.24,466.81a122.89,122.89,0,0,0,.26-144.36l-.06,0-99.34,72Z" transform="translate(-76.64 -224.87)"/><path class="cls-16" d="M232.1,394.38l99.34-72,.06,0A123.14,123.14,0,0,1,354.8,394Z" transform="translate(-76.64 -224.87)"/><path class="cls-17" d="M332,323.06a122.88,122.88,0,0,0-136.93-45.68l-.07.05,37.05,116.94Z" transform="translate(-76.64 -224.87)"/><path class="cls-18" d="M232.06,394.37,195,277.43l.07-.05a123.06,123.06,0,0,1,75.2.39Z" transform="translate(-76.64 -224.87)"/><path class="cls-19" d="M195.1,277.18a122.87,122.87,0,0,0-85.78,116.1l0,.07,122.67.93Z" transform="translate(-76.64 -224.87)"/><path class="cls-20" d="M232,394.28l-122.67-.93,0-.07a123.14,123.14,0,0,1,23.62-71.4Z" transform="translate(-76.64 -224.87)"/><polygon class="cls-21" points="42.09 42.36 109.25 135.6 0.29 99.13 42.09 42.36"/><polygon class="cls-21" points="141.24 188.53 96.37 126.23 169.18 150.6 141.24 188.53"/><polygon class="cls-21" points="0 237.82 109.42 202.77 41.07 295.13 0 237.82"/><polygon class="cls-21" points="159.58 182.59 150.61 194.76 96.61 212.06 142.28 150.34 159.58 182.59"/><polygon class="cls-21" points="172.54 338 173.01 223.1 239.72 316.65 172.54 338"/><polygon class="cls-21" points="178.17 169.78 177.96 238.42 138.5 185.26 178.17 169.78"/><polygon class="cls-21" points="321.88 205.3 212.75 169.34 322.33 134.8 321.88 205.3"/><polygon class="cls-21" points="155.98 145.24 228.9 169.27 177.83 185.36 155.67 192.34 155.98 145.24"/><polygon class="cls-21" points="241.36 22.22 173.44 114.9 174.46 0 241.36 22.22"/><polygon class="cls-21" points="132.97 161.56 178.36 99.63 177.68 176.41 132.97 161.56"/></g><path class="cls-12" d="M499.83,434.77a2.07,2.07,0,0,0,1.93,1.8c.81.09,1.63.13,2.44.14,4,0,8.05,0,12.07,0q16.61,0,33.2,0a18.14,18.14,0,0,0,2.44-.13,2.24,2.24,0,0,0,2.16-2,8.83,8.83,0,0,0,.12-1.71c0-3.56,0-7.12,0-10.69a9.87,9.87,0,0,0-.06-1.33,2.47,2.47,0,0,0-2.41-2.47,17.08,17.08,0,0,0-2.26-.08H527a14.15,14.15,0,0,1-2.26-.12,2.76,2.76,0,0,1-2.43-2.33,8.76,8.76,0,0,1-.18-1.7q0-4.68,0-9.35a7.33,7.33,0,0,1,.08-1.15,2.94,2.94,0,0,1,2.79-2.85,14.28,14.28,0,0,1,2.07-.09h19a14.28,14.28,0,0,0,2.07-.1,2.36,2.36,0,0,0,2.19-2.25,11.12,11.12,0,0,0,.07-1.53V385.51a11.83,11.83,0,0,0-.05-1.33,2.46,2.46,0,0,0-2.36-2.51,14.28,14.28,0,0,0-2.07-.08H527.88c-.75,0-1.51,0-2.26,0-2.29-.13-3.27-1.12-3.45-3.44,0-.31,0-.63,0-.95,0-1.53,0-3.06,0-4.58,0-1.08,0-2.17,0-3.25.16-2.22,1.12-3.18,3.32-3.38.69-.06,1.38,0,2.07,0H550a14.78,14.78,0,0,0,1.88-.08,2.37,2.37,0,0,0,2.16-2.06,8.67,8.67,0,0,0,.13-1.52V351a9.54,9.54,0,0,0-.11-1.52,2.34,2.34,0,0,0-2.11-2.12,15.35,15.35,0,0,0-2.25-.12H503.89a12.12,12.12,0,0,0-2.25.17,2.08,2.08,0,0,0-1.84,1.89,22.75,22.75,0,0,0-.2,2.85q0,19.86,0,39.71v11.83q0,14.22,0,28.45A15.72,15.72,0,0,0,499.83,434.77Z" transform="translate(-76.64 -224.87)"/><path class="cls-12" d="M446.9,436.63a16.89,16.89,0,0,0,1.88.08q6.8,0,13.58,0c.63,0,1.26,0,1.89-.08a2.42,2.42,0,0,0,2.5-2.55c.08-.89.06-1.78.06-2.67V376c0-.76,0-1.53,0-2.29a9.55,9.55,0,0,1,.23-1.69,2.48,2.48,0,0,1,2-2,14.34,14.34,0,0,1,2.61-.26c4.84,0,9.68,0,14.53,0a15.93,15.93,0,0,0,2.07-.09,2.25,2.25,0,0,0,2.06-1.92,8.83,8.83,0,0,0,.17-1.7q0-7.64,0-15.28a7.45,7.45,0,0,0-.1-1.33,2.37,2.37,0,0,0-2.4-2.24c-.81-.07-1.63-.06-2.44-.06H425.79a17,17,0,0,0-2.26.09,2.18,2.18,0,0,0-2,1.92,11,11,0,0,0-.2,1.89q0,7.35,0,14.71a10,10,0,0,0,.18,1.89,2.23,2.23,0,0,0,2.15,2,15.85,15.85,0,0,0,2.07.08h13.58a13,13,0,0,1,2.25.15,2.84,2.84,0,0,1,2.68,2.93c.08.89.07,1.78.07,2.67v35.13q0,10.61,0,21.19a17.4,17.4,0,0,0,.09,2.29C444.59,435.83,445.23,436.45,446.9,436.63Z" transform="translate(-76.64 -224.87)"/><path class="cls-12" d="M648.59,431.67c0,.57,0,1.15,0,1.72a6.2,6.2,0,0,0,.1,1.14,2.3,2.3,0,0,0,2.15,2.06,9.38,9.38,0,0,0,1.5.11h15.09a9.51,9.51,0,0,0,1.31-.1,2.27,2.27,0,0,0,2.24-2.17,14.47,14.47,0,0,0,.14-2.28q0-12.4,0-24.82a19.23,19.23,0,0,1,.09-2.28,2.77,2.77,0,0,1,2.34-2.63,8.57,8.57,0,0,1,1.68-.2q10.56,0,21.12,0a7.42,7.42,0,0,1,.94.06c2,.28,2.87,1.17,3,3.24.08,1.14.07,2.29.07,3.43,0,7.7,0,15.4,0,23.1a18.22,18.22,0,0,0,.2,2.66,2.08,2.08,0,0,0,1.89,1.85,15.73,15.73,0,0,0,2.06.15q7.17,0,14.33,0a12,12,0,0,0,1.7-.11,2.33,2.33,0,0,0,2.27-2.35,21.89,21.89,0,0,0,.06-2.29V368.39c0-5.79,0-11.58,0-17.37,0-2.39-.45-3.83-3.66-3.81-5.09,0-10.18,0-15.28,0a7.46,7.46,0,0,0-1.49.15,2.2,2.2,0,0,0-1.93,2,26.56,26.56,0,0,0-.16,2.67q0,11,0,21.95a21.44,21.44,0,0,1-.12,2.66,2.74,2.74,0,0,1-2.58,2.59,18,18,0,0,1-2.07.12H676c-.76,0-1.51,0-2.26-.13a2.47,2.47,0,0,1-2-1.25,5,5,0,0,1-.53-1.81c-.09-1-.06-2-.07-3,0-7.19,0-14.38,0-21.57a15.62,15.62,0,0,0-.22-2.46,2,2,0,0,0-1.6-1.68,10.14,10.14,0,0,0-2-.23c-4.9,0-9.81,0-14.71,0-.44,0-.88,0-1.32.05a2.56,2.56,0,0,0-2.59,2.71c-.07.76,0,1.53,0,2.29Q648.59,392,648.59,431.67Z" transform="translate(-76.64 -224.87)"/><path class="cls-12" d="M616.59,435.69A42.9,42.9,0,0,0,635,426.78a11.93,11.93,0,0,0,1.75-1.73,2,2,0,0,0,.09-2.48,8.53,8.53,0,0,0-1.08-1.32q-5.43-5.44-10.87-10.86c-1.92-1.91-3-1.92-5.14-.46a19.26,19.26,0,0,1-4.87,2.47,22.67,22.67,0,0,1-11.91.83,20,20,0,0,1-15.35-12.46,22.66,22.66,0,0,1-1.14-13.87c1.49-6.83,5.33-11.94,11.74-14.68A22.3,22.3,0,0,1,619,373.51c.6.35,1.18.73,1.78,1.08a2.5,2.5,0,0,0,3-.28,16.86,16.86,0,0,0,1.39-1.28q5-5.07,10-10.16a11.37,11.37,0,0,0,1.13-1.28,2.23,2.23,0,0,0-.18-3.39A21.07,21.07,0,0,0,633.5,356c-10.43-7.65-22-10.34-34.65-7.9-20.3,3.93-35.62,21.83-35.77,43.87a46.28,46.28,0,0,0,3.52,17.46A44,44,0,0,0,616.59,435.69Z" transform="translate(-76.64 -224.87)"/><path class="cls-12" d="M875.08,347.23c-24.31,0-44.07,20.13-44,44.81a44.11,44.11,0,1,0,88.21.09C919.29,367.44,899.46,347.22,875.08,347.23Zm.06,66.73c-12.53,0-21.69-10.49-21.68-22s9.22-22,21.68-22a22,22,0,0,1,0,44Z" transform="translate(-76.64 -224.87)"/><path class="cls-12" d="M1005,351.84a16.16,16.16,0,0,0,.93-2.29,1.63,1.63,0,0,0-1.47-2.32,8.36,8.36,0,0,0-1.5-.12H988.23c-.32,0-.63,0-1,0a3.68,3.68,0,0,0-3.44,2.25c-.42.85-.82,1.72-1.22,2.58l-18.48,40.34c-.34.75-.69,1.5-1.08,2.22a6,6,0,0,1-.87,1.24,1.54,1.54,0,0,1-2.47,0,5.4,5.4,0,0,1-.76-1.08c-.34-.61-.63-1.25-.92-1.88q-3.76-8.24-7.51-16.46-5.88-12.92-11.77-25.82c-1.34-2.92-2-3.35-5.22-3.39-2.39,0-4.78,0-7.17,0h0c-2.26,0-4.53,0-6.79,0a17.14,17.14,0,0,0-2.26.14,1.6,1.6,0,0,0-1.42,2.2,6,6,0,0,0,.37,1.08c.24.59.5,1.17.77,1.74q18.47,40.14,37,80.26c.31.69.66,1.37,1,2a3.59,3.59,0,0,0,3.35,2.08h5.28a3.59,3.59,0,0,0,3.34-2.1c.47-.9.9-1.82,1.32-2.75q13.4-29.15,26.77-58.31Q1000,362.65,1005,351.84Z" transform="translate(-76.64 -224.87)"/><path class="cls-12" d="M1076.15,434.41a14,14,0,0,0-.94-2.48q-18.76-40.41-37.56-80.8c-.29-.63-.6-1.26-.93-1.87a3.65,3.65,0,0,0-3.36-2.07c-1.7,0-3.4,0-5.1,0a3.65,3.65,0,0,0-3.37,2.06c-.44.84-.85,1.7-1.24,2.57q-11.49,24.88-23,49.79-7,15.21-14,30.44a15.62,15.62,0,0,0-.89,2.3,1.54,1.54,0,0,0,1.28,2.12,13,13,0,0,0,2.25.15h13.77c.57,0,1.13,0,1.7-.05a3.42,3.42,0,0,0,2.93-1.79c.32-.54.6-1.12.87-1.69.69-1.5,1.35-3,2-4.5,1.47-3.14,2.4-3.77,5.84-3.78q14.43,0,28.86,0a16.65,16.65,0,0,1,2.43.23,3.4,3.4,0,0,1,2.32,1.5,16.14,16.14,0,0,1,1.12,2c.75,1.54,1.45,3.1,2.18,4.65.28.57.56,1.14.89,1.68a3.4,3.4,0,0,0,2.8,1.69c.56,0,1.13.06,1.7.06h6.79c2.45,0,4.9,0,7.35,0a10.67,10.67,0,0,0,1.88-.12A1.52,1.52,0,0,0,1076.15,434.41Zm-38.3-28.94a7.17,7.17,0,0,1-1.85.24c-1.7,0-3.39,0-5.08,0s-3.39,0-5.09,0a7.17,7.17,0,0,1-1.85-.24,1.89,1.89,0,0,1-1.43-2.17,4.56,4.56,0,0,1,.38-1.46q2.91-6.4,5.88-12.77a5.54,5.54,0,0,1,.84-1.26,1.59,1.59,0,0,1,2.6,0,6.63,6.63,0,0,1,1,1.59q2.79,6,5.51,12.11a6.29,6.29,0,0,1,.49,1.82A1.87,1.87,0,0,1,1037.85,405.47Z" transform="translate(-76.64 -224.87)"/><path class="cls-12" d="M876,451.06c-.54-.11-4.07.25-6.67.09-5.92-.5-12-1.32-17.72-4a81.81,81.81,0,0,1-18-11.72,170.27,170.27,0,0,1-14.65-14c-1.26-1.34-2.52-2.71-3.77-4.09a6.61,6.61,0,0,1-.2-1.6c0-.45,0-2.34,0-2.79,0-21,0-39,0-60.07a16.9,16.9,0,0,0-.15-2.36,2.79,2.79,0,0,0-2.52-2.65,9.46,9.46,0,0,0-1.68-.15H796.87a9.32,9.32,0,0,0-1.4.1,3,3,0,0,0-2.85,3.08c-.08,1-.08,2-.08,2.94q0,13.38,0,26.77c0,1.39,0,2.78-.11,4.17a6.34,6.34,0,0,1-.47,2,1.65,1.65,0,0,1-2.25,1l-.15-.06c-.49-.57-29.39-28.47-37.9-37.08-2.47-2.5-3.24-2.9-4.55-2.9h-2.25c-.43,0-1.5.12-1.5.12a3,3,0,0,0-2.75,3.06c-.07,1-.08,2-.08,2.94v5.26h0v69.4c0,1.42,0,2.85,0,4.27a11.92,11.92,0,0,0,.22,2.07,2.57,2.57,0,0,0,2.12,2.15,12,12,0,0,0,2.32.22q6.52,0,13,0a13,13,0,0,0,1.87-.12,2.86,2.86,0,0,0,2.66-2.73,17.19,17.19,0,0,0,.14-2.27c0-5.41,0-10.82,0-16.23,0-4.78,0-9.56,0-14.34a11.59,11.59,0,0,1,.29-2.63c.42-1.69,1.66-2.2,3.15-1.31a10.68,10.68,0,0,1,2,1.57c3,3,6,6,8.92,9l2.07,2.07c4.24,4.64,8.41,9.16,12.59,13.47,5.12,5.28,10.24,10.24,15.48,14.67A105,105,0,0,0,824,450c9,5,17.31,8.14,26.84,8.14,19.34.1,25-5.12,25.36-5.32a2.27,2.27,0,0,0,.64-1A1.76,1.76,0,0,0,876,451.06Z" transform="translate(-76.64 -224.87)"/><g class="cls-22"><path class="cls-17" d="M598.17,372.22A22.3,22.3,0,0,1,619,373.51c.6.35,1.18.73,1.78,1.08a2.5,2.5,0,0,0,3-.28,16.86,16.86,0,0,0,1.39-1.28q5-5.07,10-10.16a11.37,11.37,0,0,0,1.13-1.28,2.23,2.23,0,0,0-.18-3.39A21.07,21.07,0,0,0,633.5,356c-10.43-7.65-22-10.34-34.65-7.9-20.3,3.93-35.62,21.83-35.77,43.87a46.28,46.28,0,0,0,3.52,17.46,44,44,0,0,0,50,26.28A42.9,42.9,0,0,0,635,426.78a11.93,11.93,0,0,0,1.75-1.73,2,2,0,0,0,.09-2.48,8.53,8.53,0,0,0-1.08-1.32q-5.43-5.44-10.87-10.86c-1.92-1.91-3-1.92-5.14-.46a19.26,19.26,0,0,1-4.87,2.47,22.67,22.67,0,0,1-11.91.83,20,20,0,0,1-15.35-12.46,22.66,22.66,0,0,1-1.14-13.87C587.92,380.07,591.76,375,598.17,372.22Z" transform="translate(-76.64 -224.87)"/><path class="cls-17" d="M673.75,379.27a2.48,2.48,0,0,1-2-1.25,5,5,0,0,1-.53-1.81c-.09-1-.06-2-.07-3,0-7.19,0-14.38,0-21.57a15.62,15.62,0,0,0-.22-2.46,2,2,0,0,0-1.6-1.68,10.14,10.14,0,0,0-2-.23c-4.9,0-9.81,0-14.71,0-.44,0-.88,0-1.32.05a2.56,2.56,0,0,0-2.59,2.71c-.07.76,0,1.53,0,2.29q0,39.71,0,79.41c0,.57,0,1.15,0,1.72a6.2,6.2,0,0,0,.1,1.14,2.3,2.3,0,0,0,2.15,2.06,9.38,9.38,0,0,0,1.5.11h15.09a9.51,9.51,0,0,0,1.31-.1,2.27,2.27,0,0,0,2.24-2.17,14.47,14.47,0,0,0,.14-2.28q0-12.4,0-24.82a19.23,19.23,0,0,1,.09-2.28,2.77,2.77,0,0,1,2.34-2.63,8.66,8.66,0,0,1,1.68-.2q10.56,0,21.12,0a7.42,7.42,0,0,1,.94.06c2,.28,2.87,1.17,3,3.24.08,1.14.07,2.29.07,3.43,0,7.7,0,15.4,0,23.1a18.22,18.22,0,0,0,.2,2.66,2.08,2.08,0,0,0,1.89,1.85,15.73,15.73,0,0,0,2.06.15q7.17,0,14.33,0a12,12,0,0,0,1.7-.11,2.33,2.33,0,0,0,2.27-2.35,21.89,21.89,0,0,0,.06-2.29V368.39c0-5.79,0-11.58,0-17.37,0-2.39-.45-3.83-3.66-3.81-5.09,0-10.18,0-15.28,0a7.46,7.46,0,0,0-1.49.15,2.2,2.2,0,0,0-1.93,2,26.56,26.56,0,0,0-.16,2.67q0,11,0,21.95a21.44,21.44,0,0,1-.12,2.66,2.74,2.74,0,0,1-2.58,2.59,18,18,0,0,1-2.07.12H676C675.25,379.39,674.5,379.35,673.75,379.27Z" transform="translate(-76.64 -224.87)"/><path class="cls-17" d="M423.61,369.67a15.85,15.85,0,0,0,2.07.08h13.58a13,13,0,0,1,2.25.15,2.84,2.84,0,0,1,2.68,2.93c.08.89.07,1.78.07,2.67v35.13q0,10.61,0,21.19a17.4,17.4,0,0,0,.09,2.29c.23,1.71.87,2.33,2.54,2.51a16.89,16.89,0,0,0,1.88.08q6.8,0,13.58,0c.63,0,1.26,0,1.89-.08a2.42,2.42,0,0,0,2.5-2.55c.08-.89.06-1.78.06-2.67V376c0-.76,0-1.53,0-2.29a9.55,9.55,0,0,1,.23-1.69,2.48,2.48,0,0,1,2-2,14.34,14.34,0,0,1,2.61-.26c4.84,0,9.68,0,14.53,0a15.93,15.93,0,0,0,2.07-.09,2.25,2.25,0,0,0,2.06-1.92,8.83,8.83,0,0,0,.17-1.7q0-7.64,0-15.28a7.45,7.45,0,0,0-.1-1.33,2.37,2.37,0,0,0-2.4-2.24c-.81-.07-1.63-.06-2.44-.06H425.79a17,17,0,0,0-2.26.09,2.18,2.18,0,0,0-2,1.92,11,11,0,0,0-.2,1.89q0,7.35,0,14.71a10,10,0,0,0,.18,1.89A2.23,2.23,0,0,0,423.61,369.67Z" transform="translate(-76.64 -224.87)"/><path class="cls-17" d="M525.5,366c.69-.06,1.38,0,2.07,0H550a14.78,14.78,0,0,0,1.88-.08,2.37,2.37,0,0,0,2.16-2.06,8.67,8.67,0,0,0,.13-1.52V351a9.54,9.54,0,0,0-.11-1.52,2.34,2.34,0,0,0-2.11-2.12,15.35,15.35,0,0,0-2.25-.12H503.89a12.12,12.12,0,0,0-2.25.17,2.08,2.08,0,0,0-1.84,1.89,22.75,22.75,0,0,0-.2,2.85q0,19.86,0,39.71v11.83q0,14.22,0,28.45a15.72,15.72,0,0,0,.23,2.65,2.07,2.07,0,0,0,1.93,1.8c.81.09,1.63.13,2.44.14,4,0,8.05,0,12.07,0q16.61,0,33.2,0a18.14,18.14,0,0,0,2.44-.13,2.24,2.24,0,0,0,2.16-2,9.7,9.7,0,0,0,.12-1.71c0-3.56,0-7.12,0-10.69a9.87,9.87,0,0,0-.06-1.33,2.47,2.47,0,0,0-2.41-2.47,17.08,17.08,0,0,0-2.26-.08H527a14.15,14.15,0,0,1-2.26-.12,2.76,2.76,0,0,1-2.43-2.33,8.76,8.76,0,0,1-.18-1.7q0-4.68,0-9.35a7.33,7.33,0,0,1,.08-1.15,2.94,2.94,0,0,1,2.79-2.85,14.28,14.28,0,0,1,2.07-.09h19a14.28,14.28,0,0,0,2.07-.1,2.36,2.36,0,0,0,2.19-2.25,11.12,11.12,0,0,0,.07-1.53V385.51a11.83,11.83,0,0,0-.05-1.33,2.46,2.46,0,0,0-2.36-2.51,14.28,14.28,0,0,0-2.07-.08H527.88c-.75,0-1.51,0-2.26,0-2.29-.13-3.27-1.12-3.45-3.44,0-.31,0-.63,0-.95,0-1.53,0-3.06,0-4.58,0-1.08,0-2.17,0-3.25C522.34,367.11,523.3,366.15,525.5,366Z" transform="translate(-76.64 -224.87)"/><path class="cls-17" d="M740.52,372.26v56.23c0,1.42,0,2.85,0,4.27a11.92,11.92,0,0,0,.22,2.07,2.57,2.57,0,0,0,2.12,2.15,12,12,0,0,0,2.32.22q6.52,0,13,0a13,13,0,0,0,1.87-.12,2.86,2.86,0,0,0,2.66-2.73,17.19,17.19,0,0,0,.14-2.27c0-5.41,0-10.82,0-16.23,0-4.78,0-9.56,0-14.34a11.59,11.59,0,0,1,.29-2.63,2.2,2.2,0,0,1,1.11-1.58Z" transform="translate(-76.64 -224.87)"/></g></svg>